<svg xmlns="http://www.w3.org/2000/svg" xmlns:svg="http://www.w3.org/2000/svg" xmlns:xlink="http://www.w3.org/1999/xlink" version="1.0" height="515pt" width="824pt" viewBox="384.5 262 832 521" ><defs><style type="text/css">
            @font-face {
                font-family: 'noto_regular';
                src: url('https://app.creately.com/diagram/assets/fonts/noto/noto-regular.woff') format('woff'),
                     url('https://app.creately.com/diagram/assets/fonts/noto/noto-regular.woff2') format('woff2');
                font-weight: normal;
                font-style: normal;
            }
        p {
            margin: 0;
        }
        </style></defs><defs><style>
            span{ display: inline-block; }
        </style></defs><g id="7hqaeqmw1x"><g transform="translate(560 265)"><rect x="0" y="0" width="494.7949653863907" height="505.44190299510956" fill="rgba(255,255,255,1)" stroke="#000000" stroke-width="1.5" stroke-linecap="round" stroke-linejoin="round"/></g><g transform="translate(784.8974826931953, 275) rotate(0, 22.5, 0)" width="45" height="18"><text text-decoration="none" x="1" fill="rgb(84, 84, 84)" font-size="10pt" font-family="noto_regular"  y="15">System</text><text text-decoration="none" x="44" fill="#4b4b4b" font-size="10pt" font-family="noto_regular"  y="15"></text></g><g transform="translate(749.8974826931953, 270) rotate(0, 57.5, 0)" width="115" height="19"><text text-decoration="none" x="8.5" fill="rgb(0, 0, 0)" font-size="10pt" font-family="Arial"  y="15">Inventory&#160;</text><text text-decoration="none" x="63.5" fill="rgb(0, 0, 0)" font-size="10pt" font-family="Arial"  y="15">System</text><text text-decoration="none" x="106.5" fill="#4b4b4b" font-size="10pt" font-family="noto_regular"  y="15"></text></g></g><g id="2izc0d67m8"><g transform="translate(640 300)"><ellipse cx="45.5" cy="30.5" rx="45.5" ry="30.5" fill="rgba(255,255,255,1)" stroke="#5e5ca7" stroke-width="1.5" stroke-linecap="round" stroke-linejoin="round"/></g><g transform="translate(655, 321) rotate(0, 30.5, 9.5)" width="61" height="19"><text text-decoration="none" x="4" fill="rgb(0, 0, 0)" font-size="9pt" font-family="Arial"  y="15">Buy&#160;</text><text text-decoration="none" x="27" fill="rgb(0, 0, 0)" font-size="9pt" font-family="Arial"  y="15">Stock</text><text text-decoration="none" x="57" fill="#4b4b4b" font-size="10pt" font-family="noto_regular"  y="15"></text></g></g><g id="2bk18rodqd"><g transform="translate(405 660)"><ellipse cx="20.5" cy="10.125" rx="10.25" ry="10.125" fill="rgba(255,255,255,1)" stroke="#5e5ca7" stroke-width="1.5" stroke-linecap="round" stroke-linejoin="round"/><path d="M 20.5,20.25 L 20.5,48.6 L 41,81 M 20.5,48.6 L 0,81 M 2.0500000000000003,30.375 L 38.95,30.375" fill="none" stroke="#5e5ca7" stroke-width="1.5" stroke-linecap="round" stroke-linejoin="round"/><rect x="0" y="0" width="41" height="81" fill="rgba(255,255,255,0.01)" stroke="rgba(255,255,255,0.01)" stroke-width="1.5" stroke-linecap="round" stroke-linejoin="round"/></g><g transform="translate(409.5, 746) rotate(0, 16, 0)" width="32" height="34"><text text-decoration="none" x="2" fill="rgb(0, 0, 0)" font-size="9pt" font-family="Arial"  y="11">Store&#160;</text><text text-decoration="none" x="3" fill="rgb(0, 0, 0)" font-size="9pt" font-family="Arial"  y="30">Staff</text><text text-decoration="none" x="29" fill="#4b4b4b" font-size="10pt" font-family="noto_regular"  y="30"></text></g></g><g id="bbl04gilua"><g transform="translate(395 340)"><ellipse cx="20.5" cy="10.125" rx="10.25" ry="10.125" fill="rgba(255,255,255,1)" stroke="#5e5ca7" stroke-width="1.5" stroke-linecap="round" stroke-linejoin="round"/><path d="M 20.5,20.25 L 20.5,48.6 L 41,81 M 20.5,48.6 L 0,81 M 2.0500000000000003,30.375 L 38.95,30.375" fill="none" stroke="#5e5ca7" stroke-width="1.5" stroke-linecap="round" stroke-linejoin="round"/><rect x="0" y="0" width="41" height="81" fill="rgba(255,255,255,0.01)" stroke="rgba(255,255,255,0.01)" stroke-width="1.5" stroke-linecap="round" stroke-linejoin="round"/></g><g transform="translate(389.5, 426) rotate(0, 26, 0)" width="52" height="19"><text text-decoration="none" x="2" fill="rgb(0, 0, 0)" font-size="9pt" font-family="Arial"  y="15">Manager</text><text text-decoration="none" x="50" fill="#4b4b4b" font-size="10pt" font-family="noto_regular"  y="15"></text></g></g><g id="oni1l6cqkc"><g><path d="M 435,380 L 640,330" fill="none" stroke="#000000" stroke-width="1.5" stroke-linecap="round" stroke-linejoin="round"/></g></g><g id="1uyv3lupr2"><g transform="translate(900 500)"><ellipse cx="50.499999701976776" cy="33.00000065565109" rx="50.499999701976776" ry="33.00000065565109" fill="rgba(255,255,255,1)" stroke="#5e5ca7" stroke-width="1.5" stroke-linecap="round" stroke-linejoin="round"/></g><g transform="translate(907.9999997019768, 523.5000006556511) rotate(0, 42.5, 9.5)" width="85" height="19"><text text-decoration="none" x="5.5" fill="rgb(0, 0, 0)" font-size="9pt" font-family="Arial"  y="15">Delivers&#160;</text><text text-decoration="none" x="50.5" fill="rgb(0, 0, 0)" font-size="9pt" font-family="Arial"  y="15">Order</text><text text-decoration="none" x="79.5" fill="#4b4b4b" font-size="10pt" font-family="noto_regular"  y="15"></text></g></g><g id="1kr5tx70zb"><g transform="translate(735 400)"><ellipse cx="53.0000022649765" cy="30.5" rx="53.0000022649765" ry="30.5" fill="rgba(255,255,255,1)" stroke="#5e5ca7" stroke-width="1.5" stroke-linecap="round" stroke-linejoin="round"/></g><g transform="translate(746.0000022649765, 421) rotate(0, 42, 9.5)" width="84" height="19"><text text-decoration="none" x="5" fill="rgb(0, 0, 0)" font-size="9pt" font-family="Arial"  y="15">Give&#160;</text><text text-decoration="none" x="31" fill="rgb(0, 0, 0)" font-size="9pt" font-family="Arial"  y="15">payment</text><text text-decoration="none" x="79" fill="#4b4b4b" font-size="10pt" font-family="noto_regular"  y="15"></text></g></g><g id="czn4etmnao"><g><path d="M 445,700 L 630,540" fill="none" stroke="#000000" stroke-width="1.5" stroke-linecap="round" stroke-linejoin="round"/></g></g><g id="2aw6qcrs29"><g transform="translate(1155 460)"><ellipse cx="20.5" cy="10.124845504760742" rx="10.25" ry="10.124845504760742" fill="rgba(255,255,255,1)" stroke="#5e5ca7" stroke-width="1.5" stroke-linecap="round" stroke-linejoin="round"/><path d="M 20.5,20.249691009521484 L 20.5,48.59925842285156 L 41,80.99876403808594 M 20.5,48.59925842285156 L 0,80.99876403808594 M 2.0500000000000003,30.374536514282227 L 38.95,30.374536514282227" fill="none" stroke="#5e5ca7" stroke-width="1.5" stroke-linecap="round" stroke-linejoin="round"/><rect x="0" y="0" width="41" height="80.99876403808594" fill="rgba(255,255,255,0.01)" stroke="rgba(255,255,255,0.01)" stroke-width="1.5" stroke-linecap="round" stroke-linejoin="round"/></g><g transform="translate(1137.5, 545.9987640380859) rotate(0, 38, 0)" width="76" height="34"><text text-decoration="none" x="16" fill="rgb(0, 0, 0)" font-size="9pt" font-family="Arial"  y="11">Supplier&#160;</text><text text-decoration="none" x="3.5" fill="rgb(0, 0, 0)" font-size="9pt" font-family="Arial"  y="30">(Warehouse)</text><text text-decoration="none" x="72.5" fill="#4b4b4b" font-size="10pt" font-family="noto_regular"  y="30"></text></g></g><g id="14u6hjiahx"><g transform="translate(905 595)"><ellipse cx="50.49930542707443" cy="30.5" rx="50.49930542707443" ry="30.5" fill="rgba(255,255,255,1)" stroke="#5e5ca7" stroke-width="1.5" stroke-linecap="round" stroke-linejoin="round"/></g><g transform="translate(928.4993054270744, 608.5) rotate(0, 27, 17)" width="54" height="34"><text text-decoration="none" x="7" fill="rgb(0, 0, 0)" font-size="9pt" font-family="Arial"  y="11">Receive&#160;</text><text text-decoration="none" x="3" fill="rgb(0, 0, 0)" font-size="9pt" font-family="Arial"  y="30">payment</text><text text-decoration="none" x="51" fill="#4b4b4b" font-size="10pt" font-family="noto_regular"  y="30"></text></g></g><g id="2mmvcfj494"><g><path d="M 1005,625 L 1155,500" fill="none" stroke="#000000" stroke-width="1.5" stroke-linecap="round" stroke-linejoin="round"/></g></g><g id="j5rrzm3bf7"><g transform="translate(740 540)"><ellipse cx="55.145534098148346" cy="35.31060814857483" rx="55.145534098148346" ry="35.31060814857483" fill="rgba(255,255,255,1)" stroke="#5e5ca7" stroke-width="1.5" stroke-linecap="round" stroke-linejoin="round"/></g><g transform="translate(744.6455340981483, 558.3106081485748) rotate(0, 50.5, 17)" width="101" height="34"><text text-decoration="none" x="6" fill="rgb(0, 0, 0)" font-size="9pt" font-family="Arial"  y="11">Do&#160;</text><text text-decoration="none" x="24" fill="rgb(0, 0, 0)" font-size="9pt" font-family="Arial"  y="11">quality&#160;</text><text text-decoration="none" x="64" fill="rgb(0, 0, 0)" font-size="9pt" font-family="Arial"  y="11">check&#160;</text><text text-decoration="none" x="19.5" fill="rgb(0, 0, 0)" font-size="9pt" font-family="Arial"  y="30">of&#160;</text><text text-decoration="none" x="33.5" fill="rgb(0, 0, 0)" font-size="9pt" font-family="Arial"  y="30">products</text><text text-decoration="none" x="81.5" fill="#4b4b4b" font-size="10pt" font-family="noto_regular"  y="30"></text></g></g><g id="ozc1g8f1w3"><g transform="translate(630 510)"><ellipse cx="55.49930512905121" cy="30.5" rx="55.49930512905121" ry="30.5" fill="rgba(255,255,255,1)" stroke="#5e5ca7" stroke-width="1.5" stroke-linecap="round" stroke-linejoin="round"/></g><g transform="translate(638.9993051290512, 516) rotate(0, 46.5, 24.5)" width="93" height="49"><text text-decoration="none" x="5.5" fill="rgb(0, 0, 0)" font-size="9pt" font-family="Arial"  y="11">Make&#160;</text><text text-decoration="none" x="37.5" fill="rgb(0, 0, 0)" font-size="9pt" font-family="Arial"  y="11">Inventory&#160;</text><text text-decoration="none" x="29" fill="rgb(0, 0, 0)" font-size="9pt" font-family="Arial"  y="26">Report</text><text text-decoration="none" x="64" fill="rgb(0, 0, 0)" font-size="9pt" font-family="Arial"  y="26"></text><text text-decoration="none" x="46.5" fill="#4b4b4b" font-size="10pt" font-family="noto_regular"  y="45"></text></g></g><g id="85wpaa39mc"><g><path d="M 1155,500 L 1000,535" fill="none" stroke="#000000" stroke-width="1.5" stroke-linecap="round" stroke-linejoin="round"/></g></g><g id="5rax4xpoq3"><g><path d="M 445,700 L 740,575" fill="none" stroke="#000000" stroke-width="1.5" stroke-linecap="round" stroke-linejoin="round"/></g></g><g id="1veb36m9xf"><g transform="translate(630 615)"><ellipse cx="55.145534098148346" cy="33.00000065565109" rx="55.145534098148346" ry="33.00000065565109" fill="rgba(255,255,255,1)" stroke="#5e5ca7" stroke-width="1.5" stroke-linecap="round" stroke-linejoin="round"/></g><g transform="translate(634.6455340981483, 631.0000006556511) rotate(0, 50.5, 17)" width="101" height="34"><text text-decoration="none" x="5.5" fill="rgb(0, 0, 0)" font-size="9pt" font-family="Arial"  y="11">Update&#160;</text><text text-decoration="none" x="47.5" fill="rgb(0, 0, 0)" font-size="9pt" font-family="Arial"  y="11">status&#160;</text><text text-decoration="none" x="84.5" fill="rgb(0, 0, 0)" font-size="9pt" font-family="Arial"  y="11">to&#160;</text><text text-decoration="none" x="26.5" fill="rgb(0, 0, 0)" font-size="9pt" font-family="Arial"  y="30">Manager</text><text text-decoration="none" x="74.5" fill="#4b4b4b" font-size="10pt" font-family="noto_regular"  y="30"></text></g></g><g id="12u9atwvy9"><g><path d="M 445,700 L 630,540" fill="none" stroke="#000000" stroke-width="1.5" stroke-linecap="round" stroke-linejoin="round"/></g></g><g id="7hq0slbjl9"><g><path d="M 630,650 L 445,700" fill="none" stroke="#5e5ca7" stroke-width="1.5" stroke-linecap="round" stroke-linejoin="round"/></g></g><g id="1m74v5mrqb"><g transform="translate(845 300)"><ellipse cx="58.00000196695328" cy="33.00000065565109" rx="58.00000196695328" ry="33.00000065565109" fill="rgba(255,255,255,1)" stroke="#5e5ca7" stroke-width="1.5" stroke-linecap="round" stroke-linejoin="round"/></g><g transform="translate(849.5000019669533, 308.5000006556511) rotate(0, 53.5, 24.5)" width="107" height="49"><text text-decoration="none" x="15.5" fill="rgb(0, 0, 0)" font-size="9pt" font-family="Arial"  y="11">Report&#160;</text><text text-decoration="none" x="53.5" fill="rgb(0, 0, 0)" font-size="9pt" font-family="Arial"  y="11">Quality&#160;</text><text text-decoration="none" x="6" fill="rgb(0, 0, 0)" font-size="9pt" font-family="Arial"  y="26">Issues&#160;</text><text text-decoration="none" x="43" fill="rgb(0, 0, 0)" font-size="9pt" font-family="Arial"  y="26">to&#160;</text><text text-decoration="none" x="57" fill="rgb(0, 0, 0)" font-size="9pt" font-family="Arial"  y="26">Supplier</text><text text-decoration="none" x="101" fill="rgb(0, 0, 0)" font-size="9pt" font-family="Arial"  y="26"></text><text text-decoration="none" x="53.5" fill="#4b4b4b" font-size="10pt" font-family="noto_regular"  y="45"></text></g></g><g id="22glcu2ajw"><mask id="d329c" x="717" y="317" width="141" height="31" maskUnits="userSpaceOnUse"><rect x="717" y="317" width="141" height="31" fill="white" /><rect x="743.5" y="320" width="88" height="25" fill="black" /></mask><g mask="url(#d329c)"><path d="M 730,330 L 845,335" fill="none" stroke="#5e5ca7" stroke-width="1.5" stroke-linecap="round" stroke-linejoin="round" stroke-dasharray="5 5"/><path d="M 730,330 Q 726.603209047995,328.050613230226 721.7034900952367,320.6307811448373 Q 721.3125551447387,329.622285006293 727.306892094869,329.88290835195085 Q 721.3125551447387,329.622285006293 720.9216201942405,338.6137888677487 Q 726.4468350677959,331.64721477480833 730,330 Z" fill="rgb(94,92,167)" stroke="#5e5ca7" stroke-width="1.5" stroke-linecap="round" stroke-linejoin="round"/></g><g transform="translate(746.5, 323)" width="82" height="19"><text text-decoration="none" x="11" fill="rgb(0, 0, 0)" font-size="9pt" font-family="Arial"  y="15">&#x3C;&#x3C;extend&#x3E;&#x3E;</text><text text-decoration="none" x="71" fill="#4b4b4b" font-size="10pt" font-family="noto_regular"  y="15"></text></g></g><g id="2mumpspuqk"><mask id="a5b73" x="672" y="347" width="131" height="66" maskUnits="userSpaceOnUse"><rect x="672" y="347" width="131" height="66" fill="white" /><rect x="692.5" y="367.5" width="90" height="25" fill="black" /></mask><g mask="url(#a5b73)"><path d="M 790,400 L 685,360" fill="none" stroke="#5e5ca7" stroke-width="1.5" stroke-linecap="round" stroke-linejoin="round" stroke-dasharray="5 5"/><path d="M 790,400 Q 792.6096006432684,402.92032224804814 794.9220229126123,411.50599969596266 Q 798.1259803037301,403.09561154427814 792.5190538941564,400.95963957872624 Q 798.1259803037301,403.09561154427814 801.329937694848,394.6852233925936 Q 793.8911835997156,399.55616698737435 790,400 Z" fill="rgb(94,92,167)" stroke="#5e5ca7" stroke-width="1.5" stroke-linecap="round" stroke-linejoin="round"/></g><g transform="translate(695.5, 370.5)" width="84" height="19"><text text-decoration="none" x="10.5" fill="rgb(0, 0, 0)" font-size="9pt" font-family="Arial"  y="15">&#x3C;&#x3C;include&#x3E;&#x3E;</text><text text-decoration="none" x="73.5" fill="#4b4b4b" font-size="10pt" font-family="noto_regular"  y="15"></text></g></g><g id="58dyh952mm"><g transform="translate(900 405)"><ellipse cx="58.00000196695328" cy="33.00000065565109" rx="58.00000196695328" ry="33.00000065565109" fill="rgba(255,255,255,1)" stroke="#5e5ca7" stroke-width="1.5" stroke-linecap="round" stroke-linejoin="round"/></g><g transform="translate(907.5000019669533, 421.0000006556511) rotate(0, 50.5, 17)" width="101" height="34"><text text-decoration="none" x="5.5" fill="rgb(0, 0, 0)" font-size="9pt" font-family="Arial"  y="11">Return&#160;</text><text text-decoration="none" x="43.5" fill="rgb(0, 0, 0)" font-size="9pt" font-family="Arial"  y="11">damaged&#160;</text><text text-decoration="none" x="33.5" fill="rgb(0, 0, 0)" font-size="9pt" font-family="Arial"  y="30">goods</text><text text-decoration="none" x="67.5" fill="#4b4b4b" font-size="10pt" font-family="noto_regular"  y="30"></text></g></g><g id="74oecpfuuj"><mask id="7c982" x="892" y="352" width="81" height="66" maskUnits="userSpaceOnUse"><rect x="892" y="352" width="81" height="66" fill="white" /><rect x="887.5" y="372.5" width="90" height="25" fill="black" /><rect x="887.5" y="372.5" width="90" height="25" fill="black" /></mask><g mask="url(#7c982)"><path d="M 905,365 L 960,405" fill="none" stroke="#5e5ca7" stroke-width="1.5" stroke-linecap="round" stroke-linejoin="round" stroke-dasharray="5 5"/><path d="M 958.1876702497337,395.6025561087704 Q 957.1722514534854,402.9434556025348 960,405 M 950.5013355642076,406.17126630136886 Q 957.1722514534854,402.9434556025348 960,405 M 960,405 Z" fill="none" stroke="#5e5ca7" stroke-width="1.5" stroke-linecap="round" stroke-linejoin="round"/></g><g transform="translate(890.5, 375.5)" width="84" height="19"><text text-decoration="none" x="10.5" fill="rgb(0, 0, 0)" font-size="9pt" font-family="Arial"  y="15">&#x3C;&#x3C;include&#x3E;&#x3E;</text><text text-decoration="none" x="73.5" fill="#4b4b4b" font-size="10pt" font-family="noto_regular"  y="15"></text></g><g transform="translate(890.5, 375.5)" width="84" height="19"><text text-decoration="none" x="10.5" fill="rgb(0, 0, 0)" font-size="9pt" font-family="Arial"  y="15">&#x3C;&#x3C;include&#x3E;&#x3E;</text><text text-decoration="none" x="73.5" fill="#4b4b4b" font-size="10pt" font-family="noto_regular"  y="15"></text></g></g><g id="2iet9kk2o7"><g transform="translate(730 670)"><ellipse cx="55.49999940395355" cy="35.500001311302185" rx="55.49999940395355" ry="35.500001311302185" fill="rgba(255,255,255,1)" stroke="#5e5ca7" stroke-width="1.5" stroke-linecap="round" stroke-linejoin="round"/></g><g transform="translate(752.9999994039536, 696.0000013113022) rotate(0, 32.5, 9.5)" width="65" height="19"><text text-decoration="none" x="3.5" fill="rgb(0, 0, 0)" font-size="9pt" font-family="Arial"  y="15">Sell&#160;</text><text text-decoration="none" x="25.5" fill="rgb(0, 0, 0)" font-size="9pt" font-family="Arial"  y="15">Stocks</text><text text-decoration="none" x="61.5" fill="#4b4b4b" font-size="10pt" font-family="noto_regular"  y="15"></text></g></g><g id="pyqky0028v"><g><path d="M 445,700 L 730,705" fill="none" stroke="#5e5ca7" stroke-width="1.5" stroke-linecap="round" stroke-linejoin="round"/></g></g><g id="2j1ynlho1l"><g transform="translate(610 410)"><ellipse cx="50.499999701976776" cy="33.00000065565109" rx="50.499999701976776" ry="33.00000065565109" fill="rgba(255,255,255,1)" stroke="#5e5ca7" stroke-width="1.5" stroke-linecap="round" stroke-linejoin="round"/></g><g transform="translate(612.9999997019768, 426.0000006556511) rotate(0, 47.5, 17)" width="95" height="34"><text text-decoration="none" x="6" fill="rgb(0, 0, 0)" font-size="9pt" font-family="Arial"  y="11">Supervise&#160;</text><text text-decoration="none" x="61" fill="rgb(0, 0, 0)" font-size="9pt" font-family="Arial"  y="11">Store&#160;</text><text text-decoration="none" x="34.5" fill="rgb(0, 0, 0)" font-size="9pt" font-family="Arial"  y="30">Staff</text><text text-decoration="none" x="60.5" fill="#4b4b4b" font-size="10pt" font-family="noto_regular"  y="30"></text></g></g><g id="650dd7ftx1"><g><path d="M 435,380 L 610,445" fill="none" stroke="#5e5ca7" stroke-width="1.5" stroke-linecap="round" stroke-linejoin="round"/></g></g></svg>